inDegrees=yes
name=ik_S53_A02_T02
DataType=double
version=3
OpenSimVersion=4.3-2021-08-27-4bc7ad9
endheader
time	pelvis_tilt	pelvis_list	pelvis_rotation	pelvis_tx	pelvis_ty	pelvis_tz	hip_flexion_r	hip_adduction_r	hip_rotation_r	knee_angle_r	knee_angle_r_beta	ankle_angle_r	subtalar_angle_r	mtp_angle_r	hip_flexion_l	hip_adduction_l	hip_rotation_l	knee_angle_l	knee_angle_l_beta	ankle_angle_l	subtalar_angle_l	mtp_angle_l	lumbar_extension	lumbar_bending	lumbar_rotation	arm_flex_r	arm_add_r	arm_rot_r	elbow_flex_r	pro_sup_r	wrist_flex_r	wrist_dev_r	arm_flex_l	arm_add_l	arm_rot_l	elbow_flex_l	pro_sup_l	wrist_flex_l	wrist_dev_l
31.56666666666615	0.2814578195333839	-1.83069196506985	-71.6871449769836	0	0.9399999999999999	0	-7.245454725119036	-1.764428153512298	-1.647242855959515	-3.613871976945664	-0.06307396474325845	0	0	0	1.316049003628976	-6.580649002376126	-6.884303701037526	10.42753406367904	0.1819948022750633	0	0	0	0	0	0	42.07886851639127	-42.07886851639127	4.95773351518517	84.43269874652577	85.04226675749888	0	0	42.07886851639127	-42.07886851639127	4.95773351518517	84.43269874652577	85.04226675749067	0	0
31.58333333333282	0.1592504655800085	-2.010056685971811	-72.61055251070529	0	0.9399999999999999	0	-7.113562506248305	-1.931915266611361	-1.125411148308344	-3.480893783700477	-0.06075305743777664	0	0	0	0.9963382156239157	-6.514384669021967	-7.501435734592405	10.19538010691815	0.1779429513580532	0	0	0	0	0	0	42.0791018313183	-42.0791018313183	4.957740280849764	84.43278955878097	85.04225999183454	0	0	42.0791018313183	-42.0791018313183	4.957740280849764	84.43278955878097	85.04225999182633	0	0
31.59999999999949	0.1036494526668634	-1.998396127016852	-73.10314877910163	0	0.9399999999999999	0	-6.855282370481219	-2.188784893715519	-1.036191792367851	-3.369902006726115	-0.0588158854869348	0	0	0	0.8542033099305374	-6.294263892458796	-7.720863554935738	9.791219916126741	0.1708890253232547	0	0	0	0	0	0	42.07935686779027	-42.07935686779027	4.957747692455353	84.43288904121222	85.04225258022929	0	0	42.07935686779027	-42.07935686779027	4.957747692455353	84.43288904121222	85.04225258022107	0	0
31.61666666666615	0.09330664980038354	-1.971704053145583	-73.32273367840531	0	0.9399999999999999	0	-6.581995220557908	-2.444297523893161	-1.193286154684436	-3.197288168750645	-0.05580320567975883	0	0	0	0.758759586021493	-6.035007111535126	-7.651292029551094	9.366830800862928	0.1634820379522754	0	0	0	0	0	0	42.07969058665682	-42.07969058665682	4.957757409950846	84.43301947452363	85.04224286273414	0	0	42.07969058665682	-42.07969058665682	4.957757409950846	84.43301947452363	85.04224286272594	0	0
31.63333333333282	0.05585154235859248	-1.777433717146743	-74.06750123367904	0	0.9399999999999999	0	-6.345188937786895	-2.679027520738689	-0.5302038041613678	-3.313870499785106	-0.05783795120596014	0	0	0	0.7047193292450971	-5.886446800915401	-8.077595211241906	9.138396843868227	0.1594951132793588	0	0	0	0	0	0	42.07990397816948	-42.07990397816948	4.957763580556481	84.43310229956268	85.0422366921288	0	0	42.07990397816948	-42.07990397816948	4.957763580556481	84.43310229956268	85.0422366921206	0	0
31.64999999999948	0.1279717975509105	-1.685045365011524	-74.54871364600908	0	0.9399999999999999	0	-5.738041002886595	-2.997929262992789	-0.4390619633120723	-2.755496844183807	-0.0480924924593206	0	0	0	0.7432972574934128	-5.650655174467112	-8.548909430779094	8.862988168508874	0.1546883251057818	0	0	0	0	0	0	42.08021507383402	-42.08021507383402	4.957772603965521	84.43322341643176	85.0422276687201	0	0	42.08021507383402	-42.08021507383402	4.957772603965521	84.43322341643176	85.04222766871189	0	0
31.66666666666615	0.151215071740287	-1.492479099685815	-74.96073973995537	0	0.9399999999999999	0	-5.550906705849775	-3.24534471125226	-0.1420222333776985	-2.870148471882473	-0.05009354085543304	0	0	0	0.784759413229951	-5.302806004775721	-8.561551145384277	8.384488271702084	0.1463369264360503	0	0	0	0	0	0	42.0805246324043	-42.0805246324043	4.957781598617251	84.43334414732539	85.04221867406871	0	0	42.0805246324043	-42.0805246324043	4.957781598617251	84.43334414732539	85.04221867406049	0	0
31.68333333333281	0.1606473169766003	-1.498949688195883	-74.94569877986221	0	0.9399999999999999	0	-5.335223395001759	-3.461987708347781	-0.4528504769839014	-2.727093556066744	-0.04759676156328526	0	0	0	0.6711179331179244	-5.000657747145885	-8.149381380952772	7.839231963507699	0.1368204085907893	0	0	0	0	0	0	42.0808505787126	-42.0808505787126	4.957791092379283	84.43347157756675	85.04220918030708	0	0	42.0808505787126	-42.0808505787126	4.957791092379283	84.43347157756675	85.04220918029887	0	0
31.69999999999948	0.1790336600125652	-1.321943739272789	-75.40601784571346	0	0.9399999999999999	0	-5.154455638544142	-3.690773285623344	-0.1062264945745564	-2.848542737561838	-0.04971644965422681	0	0	0	0.6802356795503461	-4.6635537544329	-8.236704769032425	7.300977853115896	0.1274261021520593	0	0	0	0	0	0	42.08123104915933	-42.08123104915933	4.957802149918421	84.43361999760772	85.04219812276838	0	0	42.08123104915933	-42.08123104915933	4.957802149918421	84.43361999760772	85.04219812276018	0	0
31.71666666666615	0.1730118605693865	-1.158160512273316	-75.84073097405427	0	0.9399999999999999	0	-4.298654885426344	-4.043666330893632	-0.3461629796346681	-2.195826994593524	-0.03832441085982873	0	0	0	0.754724846982071	-4.326322840717827	-8.174875149048171	6.796332095492073	0.1186183721253024	0	0	0	0	0	0	42.08157864884598	-42.08157864884598	4.957812264041709	84.43375575464474	85.04218800864551	0	0	42.08157864884598	-42.08157864884598	4.957812264041709	84.43375575464474	85.04218800863731	0	0
31.73333333333281	0.1608738145953377	-1.080148721611086	-76.0177537812135	0	0.9399999999999999	0	-3.83718979775972	-4.27890789205862	-0.5780768675126536	-1.914208864942098	-0.03340924726410307	0	0	0	0.8827988486891812	-4.013840401111955	-7.814972376104773	6.482372391812953	0.113138741577516	0	0	0	0	0	0	42.0818437051402	-42.0818437051402	4.957819976962449	84.43385928148868	85.04218029572503	0	0	42.0818437051402	-42.0818437051402	4.957819976962449	84.43385928148868	85.04218029571683	0	0
31.74999999999948	0.1483501137632346	-0.9606587080488936	-76.54288360413288	0	0.9399999999999999	0	-3.202367507869965	-4.409336858791439	-0.3473227157521813	-1.378764781216164	-0.02406398504276133	0	0	0	0.9488527359783417	-4.004578950655625	-8.350474627245102	6.463872780507281	0.1128158624498928	0	0	0	0	0	0	42.08216771811326	-42.08216771811326	4.957829354954666	84.43398515771976	85.0421709177332	0	0	42.08216771811326	-42.08216771811326	4.957829354954666	84.43398515771976	85.04217091772499	0	0
